<svg xmlns="http://www.w3.org/2000/svg" width="582.819" height="575.476" viewBox="0 0 582.819 575.476">
  <g id="Group_10" data-name="Group 10" transform="translate(-668.591 -252.262)">
    <g id="Group_1" data-name="Group 1">
      <path id="Path_1" data-name="Path 1" d="M1201.044,587.728a240.052,240.052,0,0,1-234.28,190.841,242.508,242.508,0,0,1-49.572-5.154,239.845,239.845,0,1,1,195.768-424.6,4.014,4.014,0,0,1-4.912,6.349,231.851,231.851,0,1,0,74.085,98.879,4.015,4.015,0,0,1,7.473-2.938A238.953,238.953,0,0,1,1201.044,587.728Z"/>
      <path id="Path_2" data-name="Path 2" d="M1195.979,414.643a29.208,29.208,0,1,1-8.219-20.34A29.169,29.169,0,0,1,1195.979,414.643Z"/>
      <path id="Path_3" data-name="Path 3" d="M1149.184,371.813a16.454,16.454,0,1,1-4.631-11.454A16.407,16.407,0,0,1,1149.184,371.813Z"/>
    </g>
    <g id="Group_5" data-name="Group 5">
      <g id="Group_2" data-name="Group 2">
        <path id="Path_4" data-name="Path 4" d="M933.092,435.469a2.966,2.966,0,0,1-.63,2.623q-2.415,2.832-5.351,2.413a5.429,5.429,0,0,1-.788-.052,5.571,5.571,0,0,0-.786-.053q-.841-.1-1.574-.157a7.032,7.032,0,0,1-1.469-.263q-2.417-.209-3.988-.314a38,38,0,0,0-3.987,0,9.117,9.117,0,0,1-1.994.21q-1.05,0-2.1-.105h-2.518a4.227,4.227,0,0,0-2.623.787,4.3,4.3,0,0,0-.944,2.675,10.142,10.142,0,0,0,.157,2.729q.261,1.365.472,2.833a2.338,2.338,0,0,0,.052.472,2.438,2.438,0,0,1,.053.472,6.969,6.969,0,0,0,.787,1.679,2.343,2.343,0,0,0,1.416,1.155A37.273,37.273,0,0,0,912,453.1a39.1,39.1,0,0,0,4.932-.1,16.638,16.638,0,0,1,2.623,0q1.26.106,2.519.315h.944a3.614,3.614,0,0,1,2.256,1.522,3.878,3.878,0,0,1,.892,2.675,2.536,2.536,0,0,1-1.049,1.889,7.4,7.4,0,0,1-3.253,1.417,18.51,18.51,0,0,1-3.777.157,18.933,18.933,0,0,0-2.624-.21h-4.3q-1.05,0-2.2-.1a7.115,7.115,0,0,0-2.413.263q-1.472.369-1.679,1.207v.314a8.387,8.387,0,0,0-.315,2.2v1.521a6.265,6.265,0,0,1-.1,1.207v5.981q0,.42.1,1.364c.069.63.122,1.3.158,1.994s.087,1.348.157,1.941a6.965,6.965,0,0,0,.21,1.207q.208,2.31.472,4.617t.472,4.722a4.641,4.641,0,0,1-.1,1,6.439,6.439,0,0,1-.315,1,2.663,2.663,0,0,1-1.731,1.627,20.647,20.647,0,0,1-2.361.577h-1.259a6.966,6.966,0,0,1-1.994-.314,3.057,3.057,0,0,1-1.626-1.942,7.96,7.96,0,0,1-.473-2.466v-.944a14.832,14.832,0,0,1-.105-1.836v-1.942q.1-1.889.105-4.564t-.105-5.509q-.105-2.834-.262-5.352t-.262-4.092q-.315-3.357-.472-6.821t-.262-6.82l-.1-1.574q-.211-2.729-.21-5.457v-5.876a9.128,9.128,0,0,1,.524-2.99,3.261,3.261,0,0,1,1.679-2.047,9.041,9.041,0,0,1,4.3-1q2.2.053,4.511.262,1.363.105,2.886.21t2.886.1h4.092q.839,0,1.574-.053t1.469-.052q1.888-.1,3.778-.158t3.777-.052a12.382,12.382,0,0,1,5.352,1.049A3.163,3.163,0,0,1,933.092,435.469Z"/>
        <path id="Path_5" data-name="Path 5" d="M984.822,434.734a5.894,5.894,0,0,1,.683,3.463q-.157,1.994-.263,3.882-.105,3.99-.157,7.923t-.263,8.342v5.771q-.105,2.1-.21,4.04t-.314,4.565a18.8,18.8,0,0,1-3.987,11.857c-.21.28-.42.561-.63.839a3.657,3.657,0,0,1-.735.735,24.681,24.681,0,0,1-5.088,4.407,18.461,18.461,0,0,1-6.4,2.623,20.648,20.648,0,0,1-7.765,0,28.344,28.344,0,0,1-9.286-3.672.311.311,0,0,0-.21-.105,9.223,9.223,0,0,1-2.938-2.728,17.918,17.918,0,0,1-3.148-5.09,46.218,46.218,0,0,1-2.151-6.453A58.2,58.2,0,0,1,940.593,468q-.471-3.672-.786-7.241a143.391,143.391,0,0,1-.21-17.419V438.3a7.952,7.952,0,0,1,1.521-4.46q1.418-1.941,4.775-2.151a2.682,2.682,0,0,1,2.151.735,3.6,3.6,0,0,1,1.1,1.678,6.244,6.244,0,0,1,.315,1.05,5.5,5.5,0,0,1,.1,1.049q0,.943-.052,1.889c-.036.63-.052,1.259-.052,1.888a60.748,60.748,0,0,0,0,7.451v.944c0,.42.016.876.052,1.364s.052.945.052,1.364v.84a63.28,63.28,0,0,0,1.1,17.052,38.1,38.1,0,0,0,4.355,11.7,8.442,8.442,0,0,0,4.407,3.725,10.335,10.335,0,0,0,5.246.42,11.817,11.817,0,0,0,4.827-2.046,10.373,10.373,0,0,0,3.253-3.567l.315-.63a19.64,19.64,0,0,0,1.207-4.2,48.584,48.584,0,0,0,.682-5.4q.21-2.886.21-5.982t-.1-6.138q-.315-7.029-1.049-14.691v-.1q-.105-1.782-.106-2.885a13.478,13.478,0,0,1,.21-2.309,3.876,3.876,0,0,1,.735-1.836,5.465,5.465,0,0,0,.84-1.05,3.526,3.526,0,0,1,.839-.944,6.774,6.774,0,0,1,4.669-1.1A5.07,5.07,0,0,1,984.822,434.734Z"/>
        <path id="Path_6" data-name="Path 6" d="M1027.739,465.794a24.217,24.217,0,0,0-2.571-1.469,25.266,25.266,0,0,1-3.1-1.889q-1.05-.838-2.885-2.1t-2.991-2.1q-2.2-1.469-3.515-2.466t-2.466-1.941l-2.309-1.889q-1.155-.945-3.043-2.414a1.5,1.5,0,0,0-.838-.209,2.088,2.088,0,0,0-.945.209.672.672,0,0,0-.315.42,2.651,2.651,0,0,1-.315.63,1.468,1.468,0,0,0-.1.629,41.447,41.447,0,0,1,.472,5.4q.051,2.676-.053,5.352t-.157,5.351a52.388,52.388,0,0,0,.157,5.3q.208,2.415.315,4.879t.315,4.88a33.346,33.346,0,0,1,.314,4.511,12.311,12.311,0,0,1-.839,4.407,3.11,3.11,0,0,1-2.938,2.309,5.7,5.7,0,0,1-4.145-.892,4.552,4.552,0,0,1-1.941-3.515,8.853,8.853,0,0,1-.21-1.941,17.335,17.335,0,0,1,.105-1.942q0-1.047-.052-4.04t-.21-6.138q-.157-3.148-.263-5.719t-.1-2.781q-.105-5.35-.682-10.7a84.8,84.8,0,0,1-.472-10.7,19.83,19.83,0,0,0-.053-3.253q-.156-1.575-.367-3.253a5.218,5.218,0,0,1,.525-3.148,6.3,6.3,0,0,1,2.2-2.309,4.6,4.6,0,0,1,.891-.525c.316-.139.612-.279.893-.419a3.787,3.787,0,0,1,3.252,0,12.628,12.628,0,0,1,3.148,1.836q1.363,1.1,2.729,2.361,3.355,3.148,6.506,6.506a12.549,12.549,0,0,1,1.206,1.154,12.213,12.213,0,0,0,1.207,1.154q2.412,1.995,3.83,3.253t3.1,2.938a27.126,27.126,0,0,0,2.255,1.889,25.489,25.489,0,0,0,2.466,1.574,2.6,2.6,0,0,0,1.207.42.933.933,0,0,0,.682-.21.987.987,0,0,0,.263-.577,4.994,4.994,0,0,0,.052-.683,9.391,9.391,0,0,0,.262-1.573q.051-.734.157-1.574l.316-10.389c.068-.488.121-.944.157-1.364a5.249,5.249,0,0,1,.263-1.259,7.915,7.915,0,0,1,1.94-4.092q1.206-1.049,3.936-.735a3.324,3.324,0,0,1,2.623,1.994,14.731,14.731,0,0,1,.84,2.728,12.21,12.21,0,0,1,.21,3.883q-.213,5.666-.369,11.385t-.367,11.385q-.1,2.31-.21,4.512t-.314,4.512a33.031,33.031,0,0,0-.1,4.46q.1,1.838.525,4.774.315,2.518.42,4.565a27.7,27.7,0,0,1-.106,4.144,3.661,3.661,0,0,1-1.311,2.2,2.954,2.954,0,0,1-2.466.735,9.223,9.223,0,0,1-.945-.1,5.854,5.854,0,0,1-1.626-.525,5.056,5.056,0,0,1-1.574-1.154,3.21,3.21,0,0,1-.787-1.994q-.211-2.1-.263-3.672a18.156,18.156,0,0,1,.053-2.519,28.926,28.926,0,0,0,0-4.932,40.93,40.93,0,0,1-.1-5.247q0-1.259-.053-2.623t-.21-2.57a12.446,12.446,0,0,0-.42-2.047A1.672,1.672,0,0,0,1027.739,465.794Z"/>
      </g>
      <g id="Group_3" data-name="Group 3">
        <path id="Path_7" data-name="Path 7" d="M927.374,508.372a2.451,2.451,0,0,1,1.626.735,4.489,4.489,0,0,1,.892,1.469,5.041,5.041,0,0,1,.315,1.784v1.574q-.211,1.888-.525,4.145t-.84,5.718q-1.155,6.612-2.308,13.641t-2.1,12.8q-1.156,6.824-2.1,13.222-.526,1.785-1.312,3.724a3.292,3.292,0,0,1-2.361,2.257,3.456,3.456,0,0,1-3.568-.1,7.9,7.9,0,0,1-2.938-2.729q-.944-1.467-1.731-2.675t-1.469-2.414q-.684-1.2-1.364-2.623t-1.417-3.3a7.568,7.568,0,0,0-.577-1.26c-.176-.278-.367-.593-.577-.944a1.414,1.414,0,0,0-1.1-.629,1.366,1.366,0,0,0-1.206.314c-.281.351-.561.682-.84,1a6.693,6.693,0,0,0-.735,1q-1.155,1.785-2.151,3.673t-2.151,3.673a19.083,19.083,0,0,1-1.469,2.1q-.735,1.05-1.259,1.941a5,5,0,0,1-1.679,1.627,2.781,2.781,0,0,1-2.1.524q-.945-.209-1.47-.314a2.459,2.459,0,0,1-1.469-.735,6.008,6.008,0,0,1-1.1-1.574,9.956,9.956,0,0,1-.735-1.941,7.194,7.194,0,0,1-.262-1.837,36.266,36.266,0,0,0-1.1-7.082,64.563,64.563,0,0,1-1.416-6.978q-.528-3.357-1.1-6.716t-1.1-6.716q-.42-2.622-.787-5.194t-.892-5.089a36.1,36.1,0,0,1-.63-5.509q-.105-2.78-.105-5.509a6.017,6.017,0,0,1,1-3.1,7,7,0,0,1,2.361-2.15,3.108,3.108,0,0,1,2.2-.263,2.5,2.5,0,0,1,1.784,1.207,14.884,14.884,0,0,1,.734,1.469,5.8,5.8,0,0,1,.42,1.574q.734,4.2,1.1,9.182t1,9.181q.734,4.512,1.26,8.185a72.442,72.442,0,0,0,1.678,8.079q.21.945.473,1.942a18.4,18.4,0,0,0,.577,1.836.89.89,0,0,0,.944.63,1.6,1.6,0,0,0,1.154-.525,9.6,9.6,0,0,0,1.365-2.1q.63-1.469,1.206-2.99t1.207-3.1q.418-1.047.787-2.1a17.751,17.751,0,0,1,.892-2.1,10.589,10.589,0,0,1,2.728-3.568,4.031,4.031,0,0,1,3.306-.839,3.488,3.488,0,0,1,2.675,2.1,6,6,0,0,1,.63,1.783,25.6,25.6,0,0,0,1.522,4.985q.995,2.359,2.046,4.774.839,1.888,1.783,1.364a1.638,1.638,0,0,0,1.05-.787,3.823,3.823,0,0,0,.42-1.207q.63-2.832,1.1-5.666t.891-5.771q.418-3.778.84-6.453t1.154-5.72q.315-1.258.472-2.255c.105-.664.21-1.365.315-2.1s.174-1.522.21-2.361.087-1.818.157-2.938a8.3,8.3,0,0,1,1.784-4.355Q924.646,507.953,927.374,508.372Z"/>
        <path id="Path_8" data-name="Path 8" d="M968.612,564.721a2.146,2.146,0,0,1-.419,2.414,10.111,10.111,0,0,1-1.523,1.259,3.954,3.954,0,0,1-1.836.629,7.543,7.543,0,0,1-1.259.1h-1.259q-4.934-.21-9.759-.157t-9.759.052a22.918,22.918,0,0,1-3.777-.315,2.545,2.545,0,0,1-1.785-1.783,3.212,3.212,0,0,1,.1-1.784,6.028,6.028,0,0,1,.84-1.785,1.646,1.646,0,0,1,1.259-.891,4.118,4.118,0,0,0,1.259-.263,10.712,10.712,0,0,1,2.938-.419,11.584,11.584,0,0,0,3.253-.525.928.928,0,0,0,.263-.42,2.025,2.025,0,0,1,.157-.419,13.685,13.685,0,0,0,.682-3.883q.157-2.519.263-5.037.1-2.936,0-6.19h.1q-.106-2.52-.053-5.09t.158-5.089q.1-3.987.262-7.818t.367-7.817a5.754,5.754,0,0,0-.21-1.259,2.415,2.415,0,0,0-.629-1.1,1.244,1.244,0,0,0-1.155-.472q-1.888,0-3.83-.158a10.7,10.7,0,0,1-3.725-1,1.77,1.77,0,0,1-1.206-1.417,7.726,7.726,0,0,1,.052-2.361q.209-.523.42-1.207t1.469-1.1a9.446,9.446,0,0,1,2.781-.577q1.31-.051,2.78-.157,5.037-.1,9.392-.157t9.391-.053a4.208,4.208,0,0,1,2.938,1.049,2.66,2.66,0,0,1,1.1,1.994,2.541,2.541,0,0,1-.787,1.994,11.582,11.582,0,0,1-1.835,1.312,5.173,5.173,0,0,1-2.152.682,21.277,21.277,0,0,0-3.357.524,2.776,2.776,0,0,0-1.627,1,3.567,3.567,0,0,0-.524,1.889q-.055,1.207-.263,3.1-.63,6.82-1.1,13.536a104.446,104.446,0,0,0-.052,13.641,20.867,20.867,0,0,1,0,2.938,20.576,20.576,0,0,0,0,2.938,15.165,15.165,0,0,0,.21,2.518q.208,1.26.419,2.519a1.56,1.56,0,0,0,.525.787,2.013,2.013,0,0,0,.84.472q1.574.212,3.2.315t3.2.315a3.311,3.311,0,0,1,2.046.839A4.78,4.78,0,0,1,968.612,564.721Z"/>
        <path id="Path_9" data-name="Path 9" d="M1008.065,508.687a3.4,3.4,0,0,1,1.154,2.624,2.676,2.676,0,0,1-1.364,2.413c-.281.141-.542.28-.787.42a7.642,7.642,0,0,1-3.411.944,22.757,22.757,0,0,0-5.508.682q-1.942.578-1.732,2.991v9.968q0,4.3.053,9.5t.1,10.021q.054,4.827.159,8.6t.209,5.247v1.468a1.491,1.491,0,0,1,.1.63,2.671,2.671,0,0,1-.053,1.574,14.606,14.606,0,0,1-.681,1.575,5.281,5.281,0,0,1-1.994,2.1,4.585,4.585,0,0,1-2.833.209,4.046,4.046,0,0,1-2.781-1.626,5.292,5.292,0,0,1-1.207-2.885,7.519,7.519,0,0,1,.105-1.259,7.766,7.766,0,0,0,.1-1.26c.069-.7.139-1.364.21-1.994a8.763,8.763,0,0,0,0-1.888,103.211,103.211,0,0,1-.682-12.7q.051-6.3-.053-12.7,0-3.357-.052-6.768t-.157-6.873q-.106-3.464-3.673-3.568a20.776,20.776,0,0,0-3.253-.157q-1.575.054-3.253-.053a11.458,11.458,0,0,1-1.889-.157c-.629-.105-1.259-.226-1.888-.367a2.881,2.881,0,0,1-1.574-1.994,11.737,11.737,0,0,1,.209-1.836,2.631,2.631,0,0,1,.735-1.627,4.34,4.34,0,0,1,2.833-1q1.467.054,3.253.158h2.466q1.941,0,4.25-.053l4.617-.1q2.307-.051,3.567-.157l6.139-.42q3.093-.209,6.139-.419A3.745,3.745,0,0,1,1008.065,508.687Z"/>
        <path id="Path_10" data-name="Path 10" d="M1054.759,565.77a2.785,2.785,0,0,1-1.1,2.519,4.386,4.386,0,0,1-2.78.944q-5.773,0-4.722-5.457c0-.068.016-.314.052-.734s.053-.874.053-1.364v-2.1c0-.419-.036-.978-.1-1.679a14.973,14.973,0,0,0-.368-2.1,5.288,5.288,0,0,0-.734-1.732,1.51,1.51,0,0,0-1.312-.682q-4.406-.208-8.5-.21a30.051,30.051,0,0,0-8.185,1.154,3.216,3.216,0,0,0-2.308,2.939,9.037,9.037,0,0,1-.053,1,3.181,3.181,0,0,0,.053,1c0,.629.016,1.276.052,1.941s.087,1.348.157,2.046a7.424,7.424,0,0,0,.053.944,7.871,7.871,0,0,1,.053.945,4.184,4.184,0,0,1-1.365,3.3,3.65,3.65,0,0,1-3.357.787q-.63-.208-1.26-.367c-.42-.105-.839-.226-1.259-.368a3.065,3.065,0,0,1-2.308-3.043q-.211-3.462-.21-6.925t-.1-6.926a9.3,9.3,0,0,1,.052-1,8.757,8.757,0,0,0,.053-1q0-1.992.1-3.515t.21-2.834q.105-1.311.159-2.623a25.788,25.788,0,0,0-.053-2.781q-.315-12.591.314-25.184a4.245,4.245,0,0,1,1.889-3.725,6.893,6.893,0,0,1,4.513-.786,8.818,8.818,0,0,1,1.993.839,2.113,2.113,0,0,1,1.26,1.574v1.679a13.719,13.719,0,0,1-.106,1.679q-.211,2.728-.42,5.561t-.419,5.667q-.107,1.679-.053,3.3t.053,3.3q0,2.415-.1,4.145t0,4.354a18.293,18.293,0,0,1-.105,1.995,17.836,17.836,0,0,0-.1,1.993,3.092,3.092,0,0,0,.892,1.784,2.728,2.728,0,0,0,1.626.944q1.153.106,2.309.21a8.454,8.454,0,0,0,2.309-.105q2.727-.208,5.771-.367a57.533,57.533,0,0,0,5.77-.577,4.044,4.044,0,0,0,1.47-.682,1.545,1.545,0,0,0,.629-1.312v-1.783q0-1.153-.052-2.414t-.1-2.414c-.036-.769-.052-1.433-.052-1.993q0-2.307-.1-3.883t-.158-2.938q-.054-1.362-.052-2.781v-3.3q0-2.307-.21-4.617t-.315-4.617a4.4,4.4,0,0,1,.577-2.676,3.943,3.943,0,0,1,1.522-1.521,5.244,5.244,0,0,1,1.731-.525,7.046,7.046,0,0,1,2.046.1,11.534,11.534,0,0,1,1.365.367,2.083,2.083,0,0,1,.839.682,5.044,5.044,0,0,1,.945,2.414,19.075,19.075,0,0,1,.21,2.623v9.864q-.213,5.562-.263,10.965a75.449,75.449,0,0,0,.682,10.861,31.173,31.173,0,0,1,.21,3.62q0,1.838.1,3.62Z"/>
      </g>
      <g id="Group_4" data-name="Group 4">
        <path id="Path_11" data-name="Path 11" d="M841.592,623.983a14.588,14.588,0,0,1,.735,6.4q-.315,3.568-3.568,7.764a17.928,17.928,0,0,1-10.65,6.768,19.3,19.3,0,0,1-5.457.368,30.367,30.367,0,0,1-4.827-.735,34.559,34.559,0,0,1-3.725-1.1,14.472,14.472,0,0,1-2.1-.891,13.859,13.859,0,0,1-1.469-.735q-.943-.523-2.046-1.26a18.461,18.461,0,0,1-2.1-1.626,7.142,7.142,0,0,1-1.521-1.836,14.432,14.432,0,0,1-2.361-6.4,16.974,16.974,0,0,1,.472-6.4,6.781,6.781,0,0,1,.84-1.469,2.42,2.42,0,0,1,.892-.734,3.245,3.245,0,0,1,1-.263c.35-.034.769-.087,1.26-.157a7.306,7.306,0,0,1,2.1.314,2.911,2.911,0,0,1,1.469.84,5.65,5.65,0,0,1,1.26,1.889,11.626,11.626,0,0,1,.629,2.2,5.47,5.47,0,0,1,.052,1.311c-.035.456-.052.892-.052,1.312a5.278,5.278,0,0,0,.944,3.516,8.552,8.552,0,0,0,2.729,2.36,15.906,15.906,0,0,0,4.932,1.784,8.015,8.015,0,0,0,4.826-.21,10.243,10.243,0,0,0,3.988-2.833,10.355,10.355,0,0,0,1.049-1.574,14.039,14.039,0,0,0,.892-1.942,10.309,10.309,0,0,0,.525-2.045,4.252,4.252,0,0,0-.053-1.785,15.422,15.422,0,0,0-8.079-9.129q-2.205-1.152-4.46-2.2a46.756,46.756,0,0,1-4.355-2.308,32.235,32.235,0,0,1-4.092-2.991,15.167,15.167,0,0,1-3.148-3.725.906.906,0,0,1-.262-.42,1.864,1.864,0,0,0-.263-.524c0-.07-.018-.106-.052-.106s-.053-.034-.053-.1a23.806,23.806,0,0,1-1.207-3.463,13.918,13.918,0,0,1-.472-3.568,1.878,1.878,0,0,1,0-1.259,12.2,12.2,0,0,1,1.627-5.2,13.683,13.683,0,0,1,4.774-4.564,18.682,18.682,0,0,1,7.975-2.78,38.768,38.768,0,0,1,6.506-.158,7.368,7.368,0,0,1,2.518.419h.315a12.674,12.674,0,0,1,1.522.683,13.877,13.877,0,0,1,1.416.891,16.206,16.206,0,0,1,2.938,2.572,9.168,9.168,0,0,1,1.889,3.514,10.423,10.423,0,0,0,.84,2.152,10.676,10.676,0,0,1,.839,2.151,3.044,3.044,0,0,1-.944,3.568,4.893,4.893,0,0,1-2.676,1.154,3.648,3.648,0,0,1-4.355-2.046q-.42-1-.945-2.256a12.186,12.186,0,0,0-3.252-4.2q-3.36-2.622-6.716-.736a7.5,7.5,0,0,1-1.1.736,4.844,4.844,0,0,0-1.1.839,7.083,7.083,0,0,0-2.676,4.04q-.473,2.258,1.416,5.3a11.6,11.6,0,0,0,3.883,3.462q2.1,1.156,4.092,2.2t4.093,2.2a31.783,31.783,0,0,1,4.407,2.781,30.2,30.2,0,0,1,3.357,3.1,24.385,24.385,0,0,1,1.89,1.889,20.206,20.206,0,0,1,1.678,2.2,14.442,14.442,0,0,1,1.469,2.939A.093.093,0,0,1,841.592,623.983Z"/>
        <path id="Path_12" data-name="Path 12" d="M851.666,584.214a8.416,8.416,0,0,1,2.256.63,3.025,3.025,0,0,1,1.416,1.574,2.816,2.816,0,0,0,.262.577,2.567,2.567,0,0,1,.263.682,58.025,58.025,0,0,0,4.722,11.753,103.1,103.1,0,0,0,6.82,10.912,1.905,1.905,0,0,0,.63.84l.839.629a1.446,1.446,0,0,0,.63.105.848.848,0,0,0,.629-.21q.525-.629,1-1.311a12.5,12.5,0,0,0,.891-1.522q2.414-4.72,4.775-9.5t4.774-9.706a24.5,24.5,0,0,1,1.836-2.939,9.156,9.156,0,0,1,2.466-2.308,7.1,7.1,0,0,1,1.259-.525,2.819,2.819,0,0,1,2.571.21,3.19,3.19,0,0,1,1.627,2.2,3.763,3.763,0,0,1,.315,1.942q-.107,1-.315,2.151a21.712,21.712,0,0,1-1.679,4.407q-1.155,2.31-1.994,3.778-1.47,2.623-2.518,4.564t-1.994,3.726q-.944,1.783-1.888,3.724t-2.2,4.67q-1.05,2.1-1.889,3.988t-1.574,3.673q-.735,1.784-1.521,3.671t-1.627,4.093c-.141.351-.367.858-.682,1.522s-.629,1.364-.944,2.1-.648,1.488-1,2.256a21.65,21.65,0,0,0-.84,2.1,37.536,37.536,0,0,1-1.941,3.777,5.141,5.141,0,0,1-2.99,2.309,1.981,1.981,0,0,1-.63.1,3.132,3.132,0,0,0-.735.1,4.312,4.312,0,0,1-2.676-.42,3.116,3.116,0,0,1-1.521-2.413,8.285,8.285,0,0,1,.577-3.883,24.776,24.776,0,0,1,1.837-3.882q.838-1.469,1.836-3.41a16.511,16.511,0,0,0,1.417-3.726,10.3,10.3,0,0,0,.209-2.361,4.466,4.466,0,0,0-.524-2.36q-2.519-4.409-4.46-8.238t-4.669-8.237q-1.995-3.252-4.145-6.873a73.24,73.24,0,0,1-3.725-7.083,4.706,4.706,0,0,1,1.154-5.666,6.816,6.816,0,0,1,2.1-1.784,3.9,3.9,0,0,1,.893-.315A3.653,3.653,0,0,1,851.666,584.214Z"/>
        <path id="Path_13" data-name="Path 13" d="M937.08,623.983a14.6,14.6,0,0,1,.734,6.4q-.315,3.568-3.568,7.764a17.921,17.921,0,0,1-10.65,6.768,19.3,19.3,0,0,1-5.457.368,30.386,30.386,0,0,1-4.827-.735,34.626,34.626,0,0,1-3.725-1.1,14.526,14.526,0,0,1-2.1-.891,13.765,13.765,0,0,1-1.468-.735q-.945-.523-2.047-1.26a18.45,18.45,0,0,1-2.1-1.626,7.127,7.127,0,0,1-1.522-1.836,14.444,14.444,0,0,1-2.361-6.4,16.953,16.953,0,0,1,.473-6.4,6.78,6.78,0,0,1,.839-1.469,2.428,2.428,0,0,1,.892-.734,3.244,3.244,0,0,1,1-.263q.523-.051,1.259-.157a7.3,7.3,0,0,1,2.1.314,2.919,2.919,0,0,1,1.47.84,5.648,5.648,0,0,1,1.259,1.889,11.626,11.626,0,0,1,.629,2.2,5.52,5.52,0,0,1,.053,1.311c-.036.456-.053.892-.053,1.312a5.279,5.279,0,0,0,.945,3.516,8.537,8.537,0,0,0,2.728,2.36,15.906,15.906,0,0,0,4.932,1.784,8.019,8.019,0,0,0,4.827-.21,10.24,10.24,0,0,0,3.987-2.833,10.359,10.359,0,0,0,1.05-1.574,13.912,13.912,0,0,0,.891-1.942,10.309,10.309,0,0,0,.525-2.045,4.252,4.252,0,0,0-.053-1.785,15.422,15.422,0,0,0-8.079-9.129q-2.2-1.152-4.46-2.2a46.756,46.756,0,0,1-4.355-2.308,32.3,32.3,0,0,1-4.092-2.991,15.188,15.188,0,0,1-3.148-3.725.906.906,0,0,1-.262-.42,1.857,1.857,0,0,0-.262-.524c0-.07-.018-.106-.053-.106s-.052-.034-.052-.1a23.69,23.69,0,0,1-1.207-3.463,13.873,13.873,0,0,1-.472-3.568,1.866,1.866,0,0,1,0-1.259,12.2,12.2,0,0,1,1.626-5.2,13.691,13.691,0,0,1,4.774-4.564,18.682,18.682,0,0,1,7.976-2.78,38.754,38.754,0,0,1,6.505-.158,7.364,7.364,0,0,1,2.518.419h.315a12.674,12.674,0,0,1,1.522.683,13.877,13.877,0,0,1,1.416.891,16.173,16.173,0,0,1,2.938,2.572,9.17,9.17,0,0,1,1.89,3.514,10.417,10.417,0,0,0,.839,2.152,10.676,10.676,0,0,1,.839,2.151,3.044,3.044,0,0,1-.944,3.568,4.893,4.893,0,0,1-2.676,1.154,3.646,3.646,0,0,1-4.354-2.046q-.422-1-.945-2.256a12.2,12.2,0,0,0-3.253-4.2q-3.359-2.622-6.715-.736a7.566,7.566,0,0,1-1.1.736,4.844,4.844,0,0,0-1.1.839,7.088,7.088,0,0,0-2.676,4.04q-.473,2.258,1.417,5.3a11.6,11.6,0,0,0,3.882,3.462q2.1,1.156,4.093,2.2t4.092,2.2a31.783,31.783,0,0,1,4.407,2.781,30.291,30.291,0,0,1,3.358,3.1,24.378,24.378,0,0,1,1.889,1.889,20.332,20.332,0,0,1,1.679,2.2,14.492,14.492,0,0,1,1.469,2.939A.093.093,0,0,1,937.08,623.983Z"/>
        <path id="Path_14" data-name="Path 14" d="M978.212,584.529a3.4,3.4,0,0,1,1.154,2.623A2.674,2.674,0,0,1,978,589.565c-.281.142-.543.281-.787.42a7.629,7.629,0,0,1-3.41.945,22.794,22.794,0,0,0-5.51.681q-1.943.579-1.731,2.992v9.968q0,4.3.053,9.5t.105,10.021q.051,4.828.157,8.6t.21,5.247v1.469a1.491,1.491,0,0,1,.1.63,2.68,2.68,0,0,1-.053,1.574,14.33,14.33,0,0,1-.682,1.574,5.272,5.272,0,0,1-1.994,2.1,4.584,4.584,0,0,1-2.833.209,4.054,4.054,0,0,1-2.78-1.626,5.292,5.292,0,0,1-1.207-2.886,7.514,7.514,0,0,1,.1-1.258,7.759,7.759,0,0,0,.105-1.26c.069-.7.139-1.364.21-1.993a8.773,8.773,0,0,0,0-1.889,103.453,103.453,0,0,1-.683-12.7q.053-6.3-.052-12.7,0-3.355-.052-6.767t-.158-6.873q-.1-3.464-3.672-3.568a20.905,20.905,0,0,0-3.253-.158q-1.574.054-3.253-.051a11.365,11.365,0,0,1-1.889-.159c-.63-.1-1.259-.225-1.889-.367a2.525,2.525,0,0,1-1-.786,2.574,2.574,0,0,1-.578-1.207,11.786,11.786,0,0,1,.21-1.837,2.63,2.63,0,0,1,.735-1.626,4.339,4.339,0,0,1,2.833-1q1.469.054,3.253.157h2.466q1.941,0,4.25-.052l4.617-.1q2.305-.051,3.567-.157,3.042-.21,6.139-.42t6.139-.42A3.747,3.747,0,0,1,978.212,584.529Z"/>
        <path id="Path_15" data-name="Path 15" d="M995.106,595.109q-.211,3.969-.262,7.939t-.157,7.937a2.285,2.285,0,0,0,.21,1.044,6.527,6.527,0,0,0,.524.679,2.294,2.294,0,0,0,.734.574,4.519,4.519,0,0,0,1.785.313q1.887.107,3.777.158t3.777.052l2.309.1a17.1,17.1,0,0,0,2.361.054,10.475,10.475,0,0,1,2.361.159.609.609,0,0,1,.42.106c.419.073.855.162,1.311.266a2.869,2.869,0,0,1,1.417,1.01q1.782,2.13,1.154,3.83a2.889,2.889,0,0,1-2.518,2.34,51.689,51.689,0,0,1-6.611,0h-2.991a8.684,8.684,0,0,1-1.206-.1c-.351,0-.719-.016-1.1-.052a10.174,10.174,0,0,1-1.1-.158q-1.155-.1-2.151-.21a8.149,8.149,0,0,0-1.836,0,2.178,2.178,0,0,0-1.417.578,2.065,2.065,0,0,0-.787,1.207c-.071.418-.122.786-.158,1.1s-.087.648-.157,1q-.21,1.156-.367,2.2t-.367,2.729v1.469c0,.56.016,1.154.053,1.784a13.483,13.483,0,0,0,.21,1.783,7.162,7.162,0,0,0,.367,1.364,2.5,2.5,0,0,0,1.678,1.574,21.617,21.617,0,0,0,5.509.892q2.571.054,5.4-.157,2.937-.63,5.457-1a22.124,22.124,0,0,1,5.037-.157,2.787,2.787,0,0,1,2.2,1.154,3.254,3.254,0,0,1,1.05,2.833,1.815,1.815,0,0,1-.63,1.26,5.55,5.55,0,0,1-1.679,1.048c-.42.142-.8.263-1.154.368a8.666,8.666,0,0,1-1.469.262,69.928,69.928,0,0,1-6.979.682q-3.411.157-7.5.053h-5.56q-2.1-.21-3.988-.472a9.822,9.822,0,0,1-3.778-1.417,3.853,3.853,0,0,1-1.678-2.361,31.855,31.855,0,0,1-.525-3.2q-.211-2.727-.315-7.083t-.052-8.866q.051-4.512.157-8.394t.315-5.772a65.873,65.873,0,0,0,0-10.493,34.394,34.394,0,0,1-.21-3.83q0-1.941.1-3.83v-.21q.209-4.51,3.148-4.827a8.7,8.7,0,0,1,1.941-.263q1.206-.051,2.99-.262,1.575-.1,3.149-.052t3.147.052q1.155.106,2.362.105h2.361q3.462-.1,6.82-.052t6.4.052a2.743,2.743,0,0,1,1.94.734,12.127,12.127,0,0,1,1.417,1.574,3.2,3.2,0,0,1-.314,3.988,2.911,2.911,0,0,1-2.1,1.154q-1.26.107-2.519.106h-1.994a50.424,50.424,0,0,1-6.506,0l-.42-.106q-2.2-.1-4.406-.157a37.523,37.523,0,0,0-4.407.157,8.176,8.176,0,0,0-2.414.732,3.445,3.445,0,0,0-1.469,1.775,1.45,1.45,0,0,0-.1.627Z"/>
        <path id="Path_16" data-name="Path 16" d="M1061.841,600.688q2.307-2.412,4.46-4.878a59.041,59.041,0,0,0,4.04-5.2q.63-.838,1.364-1.731t1.574-1.732a6.814,6.814,0,0,1,4.407-2.728,3.578,3.578,0,0,1,3.568.891,3.683,3.683,0,0,1,1.364,2.886q-.211,3.255-.42,6.139t-.21,6.978q-.105,1.679-.157,2.938t0,2.571q.051,1.313.1,2.78t.157,3.463q.21,2.2.21,3.83v2.991q-.1,2-.052,3.672t.1,3.306q.051,1.627.21,3.358t.367,3.725a40.343,40.343,0,0,1,.1,4.879,21.3,21.3,0,0,1-.524,3.726,3.587,3.587,0,0,1-1.207,1.836,3.627,3.627,0,0,1-2.046,1,5.568,5.568,0,0,1-1.259-.105,6.35,6.35,0,0,1-4.25-1.784,4.882,4.882,0,0,1-1.207-4.2,44.869,44.869,0,0,0,.42-8.605q-.211-4.2,0-8.5a58.242,58.242,0,0,0-.157-8.184q-.369-4.092-.682-8.185a2.091,2.091,0,0,0-.472-.84,1.587,1.587,0,0,0-.788-.524,1.743,1.743,0,0,0-1.678.63q-1.575,1.47-3.1,2.99l-2.99,2.991-1.365,1.363a26.481,26.481,0,0,1-1.994,1.837,4.771,4.771,0,0,1-2.413.892,4.855,4.855,0,0,1-2.151-.367,4.225,4.225,0,0,1-1.836-1.1q-1.472-1.362-2.781-2.781t-2.676-2.885a18.823,18.823,0,0,1-1.732-1.994,18.764,18.764,0,0,0-1.73-1.994,8.883,8.883,0,0,0-1.207-1c-.456-.316-.892-.647-1.312-1a1.726,1.726,0,0,0-1.626-.21,1.34,1.34,0,0,0-.892,1.154q-.1,1.26-.21,2.57a17.058,17.058,0,0,0,0,2.676q-.105,2.415-.157,4.3t-.053,3.724q0,1.839-.1,3.831t-.209,4.512c0,.071-.019.682-.053,1.836s-.036,2.555,0,4.2.087,3.359.157,5.142.174,3.306.315,4.565a8.157,8.157,0,0,1,.052,1.574,4.271,4.271,0,0,1-.471,1.574,2.1,2.1,0,0,1-1.889,1.574,8.188,8.188,0,0,1-2.624,0q-3.989-.418-4.2-4.2v-7.346q0-2.518.1-5.194t.21-4.775q.1-3.355,0-5.456t-.21-4.092q0-3.464-.1-6.926t0-6.925q0-2.937.158-5.877t.367-5.876a2.409,2.409,0,0,1,.314-1.259,5.538,5.538,0,0,1,.84-1.049,7.857,7.857,0,0,1,3.988-2.1,2.265,2.265,0,0,1,2.518.63q2.519,2.73,5.351,5.247a38.919,38.919,0,0,1,5.142,5.56,52.73,52.73,0,0,0,3.725,4.146q1.941,1.943,3.83,4.04a1.651,1.651,0,0,0,2.413,0c.56-.56,1.118-1.084,1.68-1.574s1.118-1.014,1.678-1.575l.1.315Z"/>
        <path id="Path_17" data-name="Path 17" d="M1129.313,623.983a14.59,14.59,0,0,1,.734,6.4q-.313,3.568-3.567,7.764a17.926,17.926,0,0,1-10.651,6.768,19.3,19.3,0,0,1-5.457.368,30.372,30.372,0,0,1-4.826-.735,34.65,34.65,0,0,1-3.726-1.1,14.492,14.492,0,0,1-2.1-.891,13.754,13.754,0,0,1-1.469-.735q-.945-.523-2.046-1.26a18.359,18.359,0,0,1-2.1-1.626,7.127,7.127,0,0,1-1.522-1.836,14.433,14.433,0,0,1-2.361-6.4,17,17,0,0,1,.471-6.4,6.865,6.865,0,0,1,.84-1.469,2.429,2.429,0,0,1,.892-.734,3.252,3.252,0,0,1,1-.263c.35-.034.769-.087,1.26-.157a7.307,7.307,0,0,1,2.1.314,2.911,2.911,0,0,1,1.469.84,5.631,5.631,0,0,1,1.259,1.889,11.551,11.551,0,0,1,.63,2.2,5.51,5.51,0,0,1,.053,1.311c-.037.456-.053.892-.053,1.312a5.273,5.273,0,0,0,.944,3.516,8.54,8.54,0,0,0,2.729,2.36,15.892,15.892,0,0,0,4.931,1.784,8.018,8.018,0,0,0,4.827-.21,10.25,10.25,0,0,0,3.988-2.833,10.428,10.428,0,0,0,1.049-1.574,14.031,14.031,0,0,0,.892-1.942,10.441,10.441,0,0,0,.525-2.045,4.285,4.285,0,0,0-.053-1.785,15.425,15.425,0,0,0-8.079-9.129q-2.2-1.152-4.46-2.2a46.765,46.765,0,0,1-4.355-2.308,32.241,32.241,0,0,1-4.093-2.991,15.206,15.206,0,0,1-3.147-3.725.9.9,0,0,1-.263-.42,1.857,1.857,0,0,0-.262-.524c0-.07-.018-.106-.052-.106s-.053-.034-.053-.1a23.914,23.914,0,0,1-1.207-3.463,13.913,13.913,0,0,1-.472-3.568,1.878,1.878,0,0,1,0-1.259,12.2,12.2,0,0,1,1.626-5.2,13.7,13.7,0,0,1,4.775-4.564,18.678,18.678,0,0,1,7.974-2.78,38.77,38.77,0,0,1,6.506-.158,7.378,7.378,0,0,1,2.519.419h.314a12.609,12.609,0,0,1,1.523.683,13.864,13.864,0,0,1,1.416.891,16.237,16.237,0,0,1,2.938,2.572,9.181,9.181,0,0,1,1.889,3.514,10.476,10.476,0,0,0,.839,2.152,10.674,10.674,0,0,1,.84,2.151,3.046,3.046,0,0,1-.945,3.568,4.889,4.889,0,0,1-2.675,1.154,3.648,3.648,0,0,1-4.355-2.046q-.42-1-.944-2.256a12.226,12.226,0,0,0-3.253-4.2q-3.36-2.622-6.716-.736a7.5,7.5,0,0,1-1.1.736,4.848,4.848,0,0,0-1.1.839,7.088,7.088,0,0,0-2.676,4.04q-.471,2.258,1.417,5.3a11.593,11.593,0,0,0,3.883,3.462q2.1,1.156,4.092,2.2t4.092,2.2a31.744,31.744,0,0,1,4.408,2.781,30.194,30.194,0,0,1,3.357,3.1,24.208,24.208,0,0,1,1.889,1.889,20.34,20.34,0,0,1,1.679,2.2,14.5,14.5,0,0,1,1.469,2.939A.093.093,0,0,1,1129.313,623.983Z"/>
      </g>
    </g>
    <g id="Group_7" data-name="Group 7">
      <g id="Group_6" data-name="Group 6">
        <path id="Path_18" data-name="Path 18" d="M1204.207,693.422a4.012,4.012,0,1,1-6.7-4.422,275.97,275.97,0,0,0,35.029-228.943c-42.2-146.341-195.593-231.07-341.942-188.866C773.483,304.967,693.233,409.457,690.9,531.205a4.01,4.01,0,1,1-8.019-.161,284.278,284.278,0,1,1,521.328,162.378Z"/>
        <path id="Path_19" data-name="Path 19" d="M705.94,642.213a29.52,29.52,0,0,1-8.139,1.156,29.285,29.285,0,1,1,8.139-1.156Z"/>
        <path id="Path_20" data-name="Path 20" d="M704.374,560.309a16.477,16.477,0,1,1-.65-4.559A16.317,16.317,0,0,1,704.374,560.309Z"/>
      </g>
      <path id="Path_21" data-name="Path 21" d="M734.715,693.334a4,4,0,0,1-5.554-1.164,282.9,282.9,0,0,1-20.252-36.681,4.01,4.01,0,1,1,7.289-3.347,275.6,275.6,0,0,0,19.681,35.638A4.014,4.014,0,0,1,734.715,693.334Z"/>
    </g>
    <g id="Group_8" data-name="Group 8">
      <path id="Path_22" data-name="Path 22" d="M755.4,722.152a8.837,8.837,0,0,0-.211-1.073,9.282,9.282,0,0,1-.221-1.319q-.02-.5-.111-1.312c-.062-.544-.108-.992-.137-1.341q-.123-.97-.161-1.576c-.026-.406-.044-.79-.054-1.158s-.02-.733-.031-1.1-.031-.844-.061-1.433a.553.553,0,0,0-.144-.284.761.761,0,0,0-.287-.213.246.246,0,0,0-.193.014,1.011,1.011,0,0,1-.252.063.557.557,0,0,0-.2.123,15.307,15.307,0,0,1-1.393,1.438q-.735.66-1.506,1.277t-1.531,1.249q-.759.632-1.441,1.323-.623.642-1.285,1.267t-1.285,1.267a12.382,12.382,0,0,1-1.183,1.177,4.543,4.543,0,0,1-1.432.83,1.148,1.148,0,0,1-1.354-.261,2.11,2.11,0,0,1-.752-1.372,1.676,1.676,0,0,1,.512-1.391,3.21,3.21,0,0,1,.491-.527,6.179,6.179,0,0,1,.567-.44q.293-.254,1.114-.991t1.662-1.541q.84-.8,1.532-1.454t.75-.7q1.469-1.321,2.822-2.776a31.184,31.184,0,0,1,2.872-2.716,7.449,7.449,0,0,0,.894-.8q.4-.424.819-.889a1.93,1.93,0,0,1,1.005-.614,2.337,2.337,0,0,1,1.176.057,1.8,1.8,0,0,1,.362.122c.115.055.226.1.333.148a1.4,1.4,0,0,1,.785.907,4.619,4.619,0,0,1,.248,1.322q.023.646,0,1.331-.068,1.7-.244,3.387a4.423,4.423,0,0,1-.031.615,4.583,4.583,0,0,0-.03.616q.027,1.155.018,1.854t-.073,1.573a10.305,10.305,0,0,0,.018,1.086,9.375,9.375,0,0,0,.157,1.068.962.962,0,0,0,.174.438.347.347,0,0,0,.224.14.363.363,0,0,0,.224-.067,1.814,1.814,0,0,0,.2-.15,3.39,3.39,0,0,0,.5-.307q.218-.162.477-.336l2.975-2.421c.153-.1.292-.2.418-.286a1.99,1.99,0,0,1,.415-.231,2.912,2.912,0,0,1,1.61-.446,1.854,1.854,0,0,1,1.156.92,1.225,1.225,0,0,1,.077,1.213,5.4,5.4,0,0,1-.558.893,4.465,4.465,0,0,1-1.033,1q-1.631,1.31-3.265,2.647t-3.265,2.647q-.669.53-1.309,1.031t-1.335,1a12.436,12.436,0,0,0-1.269,1.048q-.489.474-1.2,1.3-.627.7-1.173,1.22a10.258,10.258,0,0,1-1.181.971,1.344,1.344,0,0,1-.932.166,1.084,1.084,0,0,1-.8-.509,3.318,3.318,0,0,1-.2-.289,2.183,2.183,0,0,1-.247-.581,1.865,1.865,0,0,1-.058-.718,1.187,1.187,0,0,1,.366-.7q.534-.566.961-.96a6.76,6.76,0,0,1,.716-.594,10.813,10.813,0,0,0,1.376-1.191,15.133,15.133,0,0,1,1.438-1.3c.234-.2.474-.419.719-.649s.468-.456.667-.68a4.381,4.381,0,0,0,.469-.611A.614.614,0,0,0,755.4,722.152Z"/>
      <path id="Path_23" data-name="Path 23" d="M783.516,734.655a1.641,1.641,0,0,1-.528.942,2.117,2.117,0,0,1-1.029.515l-.027.028a1.532,1.532,0,0,1-1.17-.263,8.673,8.673,0,0,1-.85-.708l-.056-.053-.112-.108-.363-.348-.825-.791q-.434-.414-.826-.844l-.111-.108q-.507-.591-1.024-1.114a11.094,11.094,0,0,0-1.1-.976,4.141,4.141,0,0,0-.636-.289.367.367,0,0,0-.3.035l-.027.028-.294.307-1.892,1.861-1.918,1.89-.026.028a.578.578,0,0,0,.005.273.4.4,0,0,0,.1.149.393.393,0,0,1,.1.148q.445.429.881.871t.826.873l.728.751.336.322q.222.215.447.428a2.55,2.55,0,0,1,.393.486l.112.106a5.146,5.146,0,0,1,.354.527,1.662,1.662,0,0,1,.169.886l-.026.028a3.593,3.593,0,0,1-.185.976,1.468,1.468,0,0,1-.736.824,1.994,1.994,0,0,1-1.022.227,1.521,1.521,0,0,1-.9-.351,8.979,8.979,0,0,1-.906-.76q-.434-.417-.853-.873a1.8,1.8,0,0,0-.2-.242l-.168-.161-.112-.107-.587-.563a3.529,3.529,0,0,1-.266-.281c-.085-.1-.173-.211-.268-.337l-.055-.054a7.109,7.109,0,0,0-.786-.914.852.852,0,0,0-.247-.022c-.235.169-.423.31-.567.423q-.351.254-.633.492c-.189.16-.426.351-.713.577a5.781,5.781,0,0,0-.709.768,3.37,3.37,0,0,0-.518.792c-.053.091-.061.156-.023.192a7.374,7.374,0,0,0,1.113,1.469,16.447,16.447,0,0,0,1.326,1.19q.915.555,1.667,1.115a11.271,11.271,0,0,1,1.4,1.23,2.517,2.517,0,0,1,.341.568,1.329,1.329,0,0,1,.1.71,2.17,2.17,0,0,1-.6,1.464,1.427,1.427,0,0,1-.951.321,1.913,1.913,0,0,1-.936-.2c-.147-.069-.286-.14-.415-.21s-.306-.176-.527-.317a21.209,21.209,0,0,1-1.978-1.574q-.921-.83-1.957-1.875a2.206,2.206,0,0,0-.39-.321l-.056-.053-.447-.429-.056-.054-.056-.054-.028-.026a1.179,1.179,0,0,0-.183-.229l-.181-.174-.029-.027c-.355-.377-.687-.756-1-1.143a3.425,3.425,0,0,1-.648-1.506,1.843,1.843,0,0,1,.161-1.455,8.63,8.63,0,0,1,.744-1.056q.613-.753,1.658-1.9t2.169-2.292q1.126-1.146,2.119-2.127t1.5-1.4a16.51,16.51,0,0,0,2.466-2.572,12.41,12.41,0,0,1,.908-1.059q.483-.5.993-.981l.053-.056a2.6,2.6,0,0,1,1.353-.794,1.571,1.571,0,0,1,1.457.269,3.338,3.338,0,0,1,.584.426q.335.294.809.7a7.8,7.8,0,0,1,.907.788c.27.279.517.542.742.793l.028.027,1.146,1.1q.921.83,1.775,1.674t1.608,1.568a1.63,1.63,0,0,1,.5,1.125A5.631,5.631,0,0,1,783.516,734.655Z"/>
      <path id="Path_24" data-name="Path 24" d="M805.106,752.1a1.737,1.737,0,0,1-.9,2.006q-1.172.6-2.3,1.243t-2.235,1.292l-1.653.963q-.826.48-1.683.938c-.19.114-.366.212-.531.295s-.334.172-.507.266q-.912.462-1.71.941l-1.831,1.094-.024.03q-.465.275-1.1.61t-1.162.561c-.157.073-.318.152-.482.235s-.335.171-.507.265c-.19.114-.374.222-.555.326a5.6,5.6,0,0,1-.64.308l-.054.006a7.461,7.461,0,0,1-1.035.465,2.306,2.306,0,0,1-1.134.089q-.369-.094-.727-.206a2.266,2.266,0,0,1-.721-.4.272.272,0,0,1-.079-.087.162.162,0,0,0-.048-.063l-.031-.025a5.744,5.744,0,0,1-.826-.951,1.634,1.634,0,0,1-.26-1.293,2.419,2.419,0,0,1,.149-.624c.083-.23.144-.411.185-.545.087-.194.155-.362.2-.506s.106-.319.173-.53c.012-.056.023-.112.036-.169s.023-.113.035-.17q.561-1.828,1.2-3.6t1.588-4.028a14.614,14.614,0,0,0,.619-1.559c.177-.536.343-1.087.5-1.657q.137-.484.3-.971t.325-1c.127-.327.246-.661.353-1.005a6.616,6.616,0,0,0,.237-1.048,6.036,6.036,0,0,1,.259-.98,2.195,2.195,0,0,1,.574-.879,2.96,2.96,0,0,1,2.016-.674,2.186,2.186,0,0,1,1.6.724,2.758,2.758,0,0,1,.609.977,2.833,2.833,0,0,1,.18,1.082c-.02.149-.044.295-.074.436s-.065.278-.1.412-.072.247-.1.341-.051.2-.074.312q-.281.915-.573,1.844a19.59,19.59,0,0,1-.705,1.886c-.061.119-.109.22-.144.307s-.076.179-.12.275q-.33.729-.6,1.379t-.538,1.426c-.04.134-.077.253-.11.358s-.071.223-.11.357c-.073.174-.143.356-.213.548s-.136.411-.2.657c-.1.287-.194.556-.293.806s-.192.49-.275.72q-.36.951-.574,1.72,2.734-1.391,5.47-2.878a55.365,55.365,0,0,0,5.286-3.269l.079-.037a.632.632,0,0,0,.15-.128.347.347,0,0,1,.127-.1,5.005,5.005,0,0,1,2.13-1.128,2.8,2.8,0,0,1,2.391.661,1.608,1.608,0,0,1,.548.681C804.973,751.667,805.044,751.889,805.106,752.1Z"/>
      <path id="Path_25" data-name="Path 25" d="M824.156,765.564a1.635,1.635,0,0,1-.342,1.024,2.118,2.118,0,0,1-.916.7l-.021.033a1.536,1.536,0,0,1-1.2-.04,8.775,8.775,0,0,1-.967-.536l-.065-.043-.13-.084-.422-.275-.958-.623c-.336-.218-.658-.443-.969-.676l-.129-.085q-.609-.486-1.214-.9a11.4,11.4,0,0,0-1.265-.753,4.1,4.1,0,0,0-.679-.164.37.37,0,0,0-.289.089l-.021.033-.232.357q-.75,1.083-1.51,2.181L811.3,768.01l-.021.033a.6.6,0,0,0,.057.268.379.379,0,0,0,.125.127.391.391,0,0,1,.125.128c.346.224.689.456,1.028.691s.664.471.975.7l.855.6.39.253.52.338a2.622,2.622,0,0,1,.477.4l.13.085a5.031,5.031,0,0,1,.445.451,1.662,1.662,0,0,1,.332.839l-.021.032a3.6,3.6,0,0,1,0,.994,1.467,1.467,0,0,1-.568.947,2.018,2.018,0,0,1-.962.414,1.521,1.521,0,0,1-.948-.178,8.84,8.84,0,0,1-1.032-.578q-.5-.328-1-.7a1.782,1.782,0,0,0-.239-.2l-.2-.126-.129-.084-.682-.444a3.684,3.684,0,0,1-.314-.226c-.1-.082-.21-.175-.326-.282l-.065-.042a7.068,7.068,0,0,0-.943-.752.834.834,0,0,0-.246.025c-.2.21-.358.384-.478.52-.2.211-.375.411-.53.6s-.353.425-.593.7a5.888,5.888,0,0,0-.554.888,3.311,3.311,0,0,0-.36.874c-.035.1-.031.165.013.193a7.413,7.413,0,0,0,1.367,1.236,16.64,16.64,0,0,0,1.525.921q1,.375,1.846.785a11.078,11.078,0,0,1,1.6.948,2.535,2.535,0,0,1,.441.494,1.343,1.343,0,0,1,.228.68,2.165,2.165,0,0,1-.316,1.549,1.432,1.432,0,0,1-.875.5,1.938,1.938,0,0,1-.956-.022c-.158-.041-.307-.085-.447-.129s-.333-.116-.577-.214a21.184,21.184,0,0,1-2.236-1.176q-1.061-.645-2.273-1.478a2.277,2.277,0,0,0-.443-.242l-.065-.042-.519-.338-.065-.042-.065-.043-.033-.021a1.19,1.19,0,0,0-.222-.19l-.211-.138-.033-.021q-.629-.455-1.192-.937a3.426,3.426,0,0,1-.917-1.358,1.846,1.846,0,0,1-.114-1.46,8.715,8.715,0,0,1,.534-1.177q.462-.852,1.275-2.173t1.7-2.656q.894-1.335,1.685-2.484t1.216-1.657a16.434,16.434,0,0,0,1.942-2.987,12.693,12.693,0,0,1,.7-1.211q.379-.583.792-1.147l.043-.066a2.6,2.6,0,0,1,1.18-1.034,1.574,1.574,0,0,1,1.482-.006,3.211,3.211,0,0,1,.653.31c.255.15.564.328.924.531a7.621,7.621,0,0,1,1.038.606q.477.333.878.639l.032.022,1.331.865q1.059.643,2.056,1.313t1.872,1.241a1.629,1.629,0,0,1,.7,1.012A5.435,5.435,0,0,1,824.156,765.564Z"/>
      <path id="Path_26" data-name="Path 26" d="M838.855,795.548a1.66,1.66,0,0,1-.6,1.218,1.829,1.829,0,0,1-1.426.3,2.646,2.646,0,0,1-.362-.06c-.1-.025-.219-.055-.345-.094a2.993,2.993,0,0,1-.74-.256,1.8,1.8,0,0,1-.9-.911,2.773,2.773,0,0,1-.2-1.069,3.086,3.086,0,0,0-.024-.537q-.007-.484,0-1.005c.007-.347.026-.686.055-1.02.008-.4.013-.774.014-1.109s0-.664-.006-.987c-.018-.243-.033-.491-.046-.746s-.021-.543-.026-.866a.681.681,0,0,0-.211-.637,3.894,3.894,0,0,0-.377-.241q-.637-.2-1.351-.426t-1.49-.411a.38.38,0,0,0-.489.18,4.6,4.6,0,0,0-.455.7q-.189.36-.353.754l-.036.069c-.048.092-.112.212-.189.36a2.942,2.942,0,0,0-.191.446,5.145,5.145,0,0,0-.226.472c-.043.109-.076.187-.1.232a3.688,3.688,0,0,1-.861,1.472,1.44,1.44,0,0,1-1.136.5,4.3,4.3,0,0,1-1.205-.371,3.568,3.568,0,0,1-1.366-.98,1.821,1.821,0,0,1-.4-.736,1.568,1.568,0,0,1-.04-.589,2.772,2.772,0,0,1,.262-.956,7.176,7.176,0,0,1,.449-.814,8.4,8.4,0,0,1,.588-.785c.082-.1.162-.213.24-.332a1.464,1.464,0,0,1,.275-.316,13.185,13.185,0,0,0,.673-1.155q.547-1,1.56-3.095.815-1.715,1.458-3.149t.9-2.086q.31-.842.683-1.675t.718-1.657c.059-.114.123-.234.189-.359a2.144,2.144,0,0,0,.154-.378,2.376,2.376,0,0,1,1.318-1.342,2.841,2.841,0,0,1,1.966.005,3.481,3.481,0,0,1,.593.2c.189.085.369.157.541.219q.79.327,1.236.561l.96.505.1.054a11.335,11.335,0,0,1,5.334,5.165,5.211,5.211,0,0,1,.593,1.952,9.142,9.142,0,0,1-.134,1.92,6.514,6.514,0,0,1-.315,1.016q-.238.618-.31.755l-.018.035a5.716,5.716,0,0,1-3.6,3.1,5.836,5.836,0,0,0-.67.2c-.215.077-.41.141-.585.2a.459.459,0,0,0-.2.135.532.532,0,0,0-.1.361,20.951,20.951,0,0,0,0,2.581q.078,1.266.229,2.395a12.007,12.007,0,0,1,.082,1.508Q838.94,794.719,838.855,795.548Zm-1.674-12.3a2.8,2.8,0,0,0,2.338-1.7,3.154,3.154,0,0,0,.117-2.388,2.454,2.454,0,0,0-.207-.48c-.084-.147-.165-.284-.242-.412a5.787,5.787,0,0,0-2.175-2.106,3.842,3.842,0,0,0-.567-.254.723.723,0,0,0-.467-.026.4.4,0,0,0-.176.17q-.234.359-.664,1.138t-.908,1.644l-.908,1.645c-.288.519-.491.894-.612,1.122a5.161,5.161,0,0,0-.439,1.169.68.68,0,0,0,.028.364c.021.07.078.1.171.091a.274.274,0,0,0,.112.036.282.282,0,0,1,.112.037c.206.051.405.1.594.159a2.049,2.049,0,0,0,.544.089q1.022-.03,1.83-.11C836.2,783.385,836.706,783.324,837.181,783.252Z"/>
      <path id="Path_27" data-name="Path 27" d="M882.922,807.915a1.62,1.62,0,0,1-.246,1.47,3.065,3.065,0,0,1-.8.673l-.012.037q-.258.159-.5.342a3.209,3.209,0,0,1-.491.306,3.722,3.722,0,0,1-.581.4,3.723,3.723,0,0,0-.582.4,6.123,6.123,0,0,1-3.735,1.162q-.454.01-.919,0a7.667,7.667,0,0,1-.893-.075l-.038-.011a2.137,2.137,0,0,1-.685-.148l-.257-.086q-.477-.159-1.12-.435a10.254,10.254,0,0,1-1.353-.717.6.6,0,0,1-.195-.148,8.1,8.1,0,0,1-1.494-1.274,6.384,6.384,0,0,1-1.192-1.867,7.31,7.31,0,0,1-.544-2.529,10.808,10.808,0,0,1,.431-3.306,26,26,0,0,1,1.1-3.306c.04-.122.079-.238.116-.348a1.886,1.886,0,0,1,.153-.337,25.836,25.836,0,0,1,1.484-2.73,13.209,13.209,0,0,1,1.715-2.2,11.65,11.65,0,0,1,1.14-1.089,5.277,5.277,0,0,1,1.188-.746l.147-.074.183-.061a9.719,9.719,0,0,1,4.274-.451,4.981,4.981,0,0,1,4.051,2.66l.049.1q.379.822.661,1.507a5.9,5.9,0,0,1,.378,1.616v.123c.008.139.02.285.037.44a4.68,4.68,0,0,1,.024.478,1.117,1.117,0,0,1-.38.772,1.27,1.27,0,0,1-1.017.354,1.8,1.8,0,0,1-1.676-1.214,5.252,5.252,0,0,1-.324-.8q-.129-.409-.275-.827a5.246,5.246,0,0,1-.184-.551,2.857,2.857,0,0,0-.2-.514,2.139,2.139,0,0,0-.93-1.127,2.864,2.864,0,0,0-1.677-.357,4.717,4.717,0,0,0-1.048.325,7.916,7.916,0,0,0-1.01.581,1.9,1.9,0,0,1-.515.44.343.343,0,0,0-.141.116.347.347,0,0,1-.14.117,8.834,8.834,0,0,0-1.906,2.16,19.237,19.237,0,0,0-1.342,2.674q-.234.576-.4,1.151c-.115.385-.225.776-.331,1.176a2.313,2.313,0,0,0-.086.318,2.436,2.436,0,0,1-.086.318,6.735,6.735,0,0,0,.242,4.531,4.362,4.362,0,0,0,.93,1.31,4.089,4.089,0,0,0,1.432.907,4.252,4.252,0,0,0,1.616.295,3.518,3.518,0,0,0,1.555-.379l.147-.073a7,7,0,0,0,.968-.452,3.535,3.535,0,0,0,.833-.661,2,2,0,0,1,.453-.379c.172-.106.376-.229.613-.367l.2-.1a7.7,7.7,0,0,1,1.108-.508,1.668,1.668,0,0,1,1.206.056A1.306,1.306,0,0,1,882.922,807.915Z"/>
      <path id="Path_28" data-name="Path 28" d="M910.773,800.409a1.64,1.64,0,0,1,.028,1.079,2.129,2.129,0,0,1-.623.968l-.009.038a1.529,1.529,0,0,1-1.14.371,8.558,8.558,0,0,1-1.092-.175l-.076-.018-.151-.035-.49-.114-1.112-.259q-.585-.137-1.142-.3l-.151-.035c-.491-.168-.974-.312-1.448-.436a11.4,11.4,0,0,0-1.447-.278,4.177,4.177,0,0,0-.693.077.364.364,0,0,0-.242.183l-.008.037-.1.415q-.336,1.275-.677,2.567t-.685,2.6l-.009.037c.071.15.119.227.145.233a.384.384,0,0,0,.161.077.4.4,0,0,1,.161.077c.4.094.8.194,1.2.3s.785.217,1.156.329l1.01.274.452.106.6.14a2.556,2.556,0,0,1,.586.216l.151.035a5.014,5.014,0,0,1,.573.273,1.657,1.657,0,0,1,.6.676l-.009.037a3.569,3.569,0,0,1,.34.933,1.466,1.466,0,0,1-.213,1.084,1.981,1.981,0,0,1-.763.717,1.518,1.518,0,0,1-.951.156,8.966,8.966,0,0,1-1.168-.191c-.39-.091-.783-.2-1.179-.315a1.726,1.726,0,0,0-.293-.108l-.226-.053-.151-.035-.792-.183c-.126-.03-.25-.065-.372-.107s-.257-.093-.4-.153l-.076-.018a6.973,6.973,0,0,0-1.142-.385.8.8,0,0,0-.224.107c-.115.265-.206.482-.271.652-.115.266-.213.514-.293.747s-.187.52-.32.86a5.975,5.975,0,0,0-.218,1.023,3.367,3.367,0,0,0-.041.944c0,.107.028.166.079.177a7.338,7.338,0,0,0,1.706.7,16.9,16.9,0,0,0,1.748.347q1.071.011,2,.109a11.129,11.129,0,0,1,1.827.345,2.47,2.47,0,0,1,.583.315,1.326,1.326,0,0,1,.446.56,2.168,2.168,0,0,1,.232,1.565,1.428,1.428,0,0,1-.654.762,1.918,1.918,0,0,1-.906.306c-.163.016-.318.026-.464.031s-.353,0-.616,0a21.18,21.18,0,0,1-2.5-.344q-1.217-.243-2.64-.615a2.4,2.4,0,0,0-.5-.076l-.075-.017-.6-.141-.075-.017-.075-.017-.038-.009a1.117,1.117,0,0,0-.274-.1l-.245-.058-.038-.009q-.747-.213-1.44-.474a3.425,3.425,0,0,1-1.326-.964,1.848,1.848,0,0,1-.6-1.333,8.532,8.532,0,0,1,.1-1.289q.144-.96.458-2.478t.7-3.078q.384-1.56.737-2.909t.578-1.973a16.417,16.417,0,0,0,.807-3.47,12.713,12.713,0,0,1,.241-1.375q.158-.68.354-1.349l.017-.075a2.592,2.592,0,0,1,.757-1.374,1.573,1.573,0,0,1,1.392-.512,3.262,3.262,0,0,1,.719.068q.438.082,1.05.185a7.651,7.651,0,0,1,1.183.216q.561.15,1.042.3l.038.009,1.546.361q1.215.243,2.381.534t2.183.527a1.635,1.635,0,0,1,1.007.712A5.358,5.358,0,0,1,910.773,800.409Z"/>
      <path id="Path_29" data-name="Path 29" d="M935.829,820.366a24.38,24.38,0,0,1,.806,2.9,4.314,4.314,0,0,1,.049,1.549,1.967,1.967,0,0,1-1.189,1.6,2.02,2.02,0,0,1-1.116.165,2.091,2.091,0,0,1-.874-.331,2.124,2.124,0,0,1-.669-.694,4.32,4.32,0,0,1-.392-.872q-.079-.284-.162-.549c-.054-.177-.1-.332-.133-.467l.005-.038c-.035-.134-.073-.283-.117-.445s-.082-.311-.117-.445q-.113-.328-.2-.672t-.2-.671a.958.958,0,0,0-.735-.645q-1.668-.378-3.165-.577a32.907,32.907,0,0,0-3.365-.251l-.269-.035-.043.033a.833.833,0,0,0-.312,0,.8.8,0,0,0-.508.148.423.423,0,0,0-.124.2c-.073.147-.137.295-.2.443s-.124.3-.2.443l-.044.033c-.039.1-.079.2-.12.316a2.419,2.419,0,0,1-.164.35l-.107.22a6.057,6.057,0,0,1-.289.7q-.16.33-.327.7a1.82,1.82,0,0,1-.892.839,1.842,1.842,0,0,1-1.223.092c-.125-.043-.262-.088-.412-.133a3.1,3.1,0,0,1-.445-.177,1.839,1.839,0,0,1-.984-2.005l.005-.039.005-.038.01-.077a1.521,1.521,0,0,0,.1-.337,2.693,2.693,0,0,1,.163-.486q.31-.584.578-1.115c.176-.354.353-.7.528-1.043l.044-.034q.633-1.243,1.187-2.323t1.175-2.226q.621-1.149,1.379-2.454t1.8-3q.3-.5.621-1.147c.213-.428.428-.867.644-1.321s.425-.894.625-1.324.375-.815.525-1.16a.444.444,0,0,1,.037-.132.4.4,0,0,0,.037-.131,1.091,1.091,0,0,1,.048-.209c.021-.062.051-.143.09-.242a1.884,1.884,0,0,1,.777-.854,2.17,2.17,0,0,1,1.139-.337,1.87,1.87,0,0,1,1.62,1.035,6.334,6.334,0,0,1,.651,1.571,10.185,10.185,0,0,0,.277,1.15q.286,1.074.736,2.7t.975,3.547q.525,1.926,1,3.668.155.606.313,1.174l.318,1.136c.072.244.149.5.232.754s.173.51.271.758a4.219,4.219,0,0,1,.193.455C935.749,820.134,935.791,820.257,935.829,820.366Zm-5.678-3.722a2.334,2.334,0,0,0-.1-.679q-.2-.846-.46-1.681t-.581-1.66q-.141-.408-.3-.821c-.107-.274-.2-.56-.3-.859l-.005.038-.044.033,0,.039q-2.611,4.068-3.035,4.909l.269.036.038.005.307.041a.838.838,0,0,1,.264.074l.532.11q.758.179,1.386.3a13.716,13.716,0,0,0,1.713.188A3.1,3.1,0,0,1,930.151,816.644Z"/>
      <path id="Path_30" data-name="Path 30" d="M963.356,821.935a5.85,5.85,0,0,1-1.5,3.126,7.719,7.719,0,0,1-3.1,2.181,7.875,7.875,0,0,1-2.725.371l-.426-.014a9.307,9.307,0,0,1-2.519-.532q-1.053-.4-1.471-.612l-.038,0a4.6,4.6,0,0,1-.552-.309q-.36-.225-.756-.529t-.791-.666a3.074,3.074,0,0,1-.614-.757,5.8,5.8,0,0,1-.843-2.548,6.475,6.475,0,0,1,.28-2.509V819.1l.04-.038a1.959,1.959,0,0,1,.809-1,2.561,2.561,0,0,1,.976-.218.184.184,0,0,0,.078-.016.251.251,0,0,1,.117-.016h.039l.038,0a3.574,3.574,0,0,1,.867.165,1.789,1.789,0,0,1,.816.473,3.21,3.21,0,0,1,.751,1.846,2.1,2.1,0,0,1,.024.408c0,.142-.009.278-.013.407a.549.549,0,0,1-.047.23,1.884,1.884,0,0,0,.131.7,1.8,1.8,0,0,0,.786.8,7.08,7.08,0,0,0,1.567.635,2.393,2.393,0,0,0,2.507-.806,4.245,4.245,0,0,0,.286-.416q.164-.266.33-.609.257-.689.147-.886a4.719,4.719,0,0,0-2.379-2.948l-.267-.125q-.723-.373-1.427-.766t-1.424-.843a7.2,7.2,0,0,1-2.66-2.648.481.481,0,0,1-.11-.2.976.976,0,0,0-.108-.237l-.037-.04v-.038a8.757,8.757,0,0,1-.417-1.409,7.621,7.621,0,0,1-.15-1.284,1.472,1.472,0,0,1-.049-.273.7.7,0,0,1,.071-.346,4.719,4.719,0,0,1,2.724-3.782,7.346,7.346,0,0,1,2.958-.963,13.233,13.233,0,0,1,2.5-.012,3.436,3.436,0,0,1,1.077.23l.077,0a3.654,3.654,0,0,1,.458.21,2.02,2.02,0,0,1,.38.226c.125.1.251.183.378.264a12.618,12.618,0,0,1,1.069,1.026,3.42,3.42,0,0,1,.782,1.517c.047.106.089.21.125.315s.075.223.123.352.1.269.16.414a4.507,4.507,0,0,1,.159.45,1.807,1.807,0,0,1-.608,1.917,1.854,1.854,0,0,1-.709.363c-.261.068-.457.113-.586.135a1.881,1.881,0,0,1-.66.035,1.5,1.5,0,0,1-.766-.277,2.234,2.234,0,0,1-.615-.7,5.684,5.684,0,0,1-.342-.767.962.962,0,0,1-.053-.137,1.207,1.207,0,0,0-.054-.138,3.352,3.352,0,0,0-.926-1.232,1.274,1.274,0,0,0-1.619-.249,2.524,2.524,0,0,0-.673.441,1.589,1.589,0,0,0-.8,1.174,2.444,2.444,0,0,0,.4,1.254,3.164,3.164,0,0,0,1.086,1.083c.253.139.513.289.779.453s.525.315.779.452c.2.111.412.222.627.332a6.18,6.18,0,0,1,.627.371,12.577,12.577,0,0,1,1.552,1.079,14.253,14.253,0,0,1,1.238,1.185q.188.162.822.88a5.822,5.822,0,0,1,1.059,1.9l0,.077A5.786,5.786,0,0,1,963.356,821.935Z"/>
      <path id="Path_31" data-name="Path 31" d="M987.409,805.522a1.649,1.649,0,0,1,.327,1.029,2.133,2.133,0,0,1-.329,1.1l0,.039a1.538,1.538,0,0,1-.992.674,8.467,8.467,0,0,1-1.1.135l-.077.005-.156.008-.5.027-1.14.061c-.4.021-.794.03-1.182.025l-.154.008q-.78-.035-1.514-.016a11.494,11.494,0,0,0-1.466.137,4.107,4.107,0,0,0-.645.268.366.366,0,0,0-.181.242l0,.038.024.426q.03,1.317.064,2.652t.066,2.692l0,.039c.11.124.178.184.2.182a.372.372,0,0,0,.175.03.4.4,0,0,1,.177.029q.618-.033,1.238-.047c.412-.009.814-.011,1.2-.006l1.046-.018.464-.024.618-.033a2.48,2.48,0,0,1,.623.044l.155-.009a5.223,5.223,0,0,1,.626.1,1.651,1.651,0,0,1,.762.482l0,.039a3.554,3.554,0,0,1,.586.8,1.463,1.463,0,0,1,.1,1.1,1.989,1.989,0,0,1-.533.9,1.519,1.519,0,0,1-.869.415,8.769,8.769,0,0,1-1.175.14c-.4.022-.807.031-1.221.027a1.756,1.756,0,0,0-.311-.022l-.232.013-.155.008-.812.044a3.559,3.559,0,0,1-.387,0c-.13-.006-.273-.018-.429-.035l-.077,0a6.987,6.987,0,0,0-1.205-.052.835.835,0,0,0-.185.165q-.055.43-.079.7-.054.431-.073.8c-.013.246-.035.551-.068.914a5.983,5.983,0,0,0,.076,1.043,3.365,3.365,0,0,0,.223.919c.032.1.074.151.125.148a7.367,7.367,0,0,0,1.833.193,16.7,16.7,0,0,0,1.776-.154q1.031-.288,1.953-.454a11.314,11.314,0,0,1,1.851-.177,2.543,2.543,0,0,1,.648.14,1.334,1.334,0,0,1,.584.415,2.166,2.166,0,0,1,.659,1.438,1.432,1.432,0,0,1-.416.915,1.93,1.93,0,0,1-.785.545c-.152.061-.3.114-.438.16s-.337.1-.591.167a21.142,21.142,0,0,1-2.5.367q-1.238.1-2.707.145a2.343,2.343,0,0,0-.5.066l-.078,0-.619.033-.077,0-.077.005-.039,0a1.161,1.161,0,0,0-.292-.024l-.251.014-.039,0q-.777,0-1.515-.055a3.425,3.425,0,0,1-1.543-.556,1.851,1.851,0,0,1-.951-1.113,8.481,8.481,0,0,1-.262-1.265q-.131-.963-.251-2.507t-.188-3.151q-.066-1.605-.1-3t.006-2.054a16.473,16.473,0,0,0-.19-3.558,12.505,12.505,0,0,1-.153-1.388q-.037-.7-.036-1.394l0-.077a2.6,2.6,0,0,1,.344-1.531,1.58,1.58,0,0,1,1.194-.879,3.289,3.289,0,0,1,.71-.134c.295-.029.65-.068,1.061-.116a7.713,7.713,0,0,1,1.195-.122c.388-.007.749-.007,1.086,0l.038,0,1.586-.085q1.234-.105,2.435-.15t2.243-.1a1.633,1.633,0,0,1,1.166.4A5.482,5.482,0,0,1,987.409,805.522Z"/>
      <path id="Path_32" data-name="Path 32" d="M1026.757,798.855a2.076,2.076,0,0,1,.629.562,1.334,1.334,0,0,1,.281.792,1.687,1.687,0,0,1-.493,1.446,3.4,3.4,0,0,0-.325.245,3.253,3.253,0,0,1-.325.245,3.443,3.443,0,0,1-1.024.407q-.333.108-.966.3a1.466,1.466,0,0,0-.784.418.107.107,0,0,0-.022.083.328.328,0,0,1,0,.1.171.171,0,0,0,.047.128q.015.078.218,1.063t.51,2.484q.309,1.5.689,3.258t.739,3.406q.357,1.645.657,2.909c.2.842.345,1.425.439,1.748l.108.531.008.038a.158.158,0,0,0,.062.106,2.27,2.27,0,0,1-.038,1.549,2.039,2.039,0,0,1-1.579,1.55,2.661,2.661,0,0,1-.5.064,2.214,2.214,0,0,1-1.483-.487,2.118,2.118,0,0,1-.857-1.286c-.026-.126-.048-.233-.067-.322a1.852,1.852,0,0,1-.028-.33,1.035,1.035,0,0,1-.025-.312l-.077-.379c-.007-.157-.018-.312-.037-.466a1.577,1.577,0,0,0-.1-.415q-.542-1.666-.925-3.347t-.69-3.357l-.42-2.048q-.3-1.243-.534-2.4t-.547-2.278a.97.97,0,0,0-.215-.47,1.343,1.343,0,0,0-.562-.043l-1.138.234-.569.117a3.874,3.874,0,0,1-.539.071,4.924,4.924,0,0,1-1.328.075l-.114.024a1.119,1.119,0,0,1-.8-.33,1.687,1.687,0,0,1-.483-.711c0-.026-.021-.108-.05-.247a3.873,3.873,0,0,1-.063-.5,2.4,2.4,0,0,1,.034-.6,1.2,1.2,0,0,1,.244-.545,2.13,2.13,0,0,1,.977-.635,7.308,7.308,0,0,1,1.023-.211l.418-.085.854-.175c.441-.091.928-.2,1.456-.32s1.05-.241,1.566-.361.91-.219,1.183-.3q1.16-.318,2.211-.593t2.02-.553A1.564,1.564,0,0,1,1026.757,798.855Z"/>
      <path id="Path_33" data-name="Path 33" d="M1056.1,800.264q.327.669.558,1.227t.4,1.111q.17.557.29,1.146t.251,1.281a14.382,14.382,0,0,1,.216,2.687,3.279,3.279,0,0,1-.127,1.173,6.578,6.578,0,0,1-.723,2.267,14.5,14.5,0,0,1-1.455,2.126l-.025.048-.037.011a8.709,8.709,0,0,1-2.426,1.8,11.63,11.63,0,0,1-1.973.766.67.67,0,0,1-.248.117,3.107,3.107,0,0,1-.492.11,3.024,3.024,0,0,1-.478.025.272.272,0,0,1-.118.015.161.161,0,0,0-.079.005c-.163,0-.325,0-.484.006a2.986,2.986,0,0,1-.446-.005.077.077,0,0,1-.062,0,.079.079,0,0,0-.061,0l-.048-.025a10.254,10.254,0,0,1-2.425-.513,3.52,3.52,0,0,1-1.142-.42l-.037.012a1.372,1.372,0,0,0-.187-.084,1.464,1.464,0,0,1-.188-.085q-2.394-1.332-4.093-5.428a4.311,4.311,0,0,1-.3-.638q-.122-.327-.235-.7l-.192-.63-.091-.3-.148-.481q-.125-.406-.253-.894a10.039,10.039,0,0,1-.214-1.028,11.144,11.144,0,0,1,.96-7.179,14.149,14.149,0,0,1,.734-1.237,8.129,8.129,0,0,1,1.027-1.206,6.339,6.339,0,0,1,1.213-1,9.832,9.832,0,0,1,1.426-.7,8.286,8.286,0,0,1,.92-.3c.3-.078.523-.141.672-.185.2-.037.4-.07.6-.1l.559-.091.281-.005a6.331,6.331,0,0,1,2.915.261,5.115,5.115,0,0,1,2.219,1.689l.048.026.023.074.038-.012.022.075a.118.118,0,0,1,.06.062.11.11,0,0,0,.059.064l.012.037a.034.034,0,0,1,.048.025l.62.7a7.114,7.114,0,0,1,.616.823q.628.863,1.135,1.718A12.752,12.752,0,0,1,1056.1,800.264Zm-3.4,9.667a8.572,8.572,0,0,0,.5-2.278,10.141,10.141,0,0,0-.2-2.308,5.179,5.179,0,0,0-.184-.733c-.1-.334-.215-.677-.336-1.032s-.233-.67-.332-.951-.16-.457-.184-.531a11.018,11.018,0,0,0-1.1-2.152,8.536,8.536,0,0,0-1.154-1.388,4.723,4.723,0,0,0-1.974-1.156.425.425,0,0,1-.11-.028.509.509,0,0,0-.11-.027.382.382,0,0,0-.158-.053,1.135,1.135,0,0,1-.146-.015,2.292,2.292,0,0,0-1.068.084,3.526,3.526,0,0,0-2.154,1.956,4.784,4.784,0,0,0-.581,2.2q-.015.612.021,1.128t.092,1.024q.054.51.158,1.045t.259,1.177l.216.7.237.777a8.421,8.421,0,0,0,3.164,4.377,2.655,2.655,0,0,0,2.65.322l.074-.023a1.965,1.965,0,0,1,.322-.139.69.69,0,0,0,.274-.165,8.753,8.753,0,0,0,1.133-.793A2.474,2.474,0,0,0,1052.7,809.931Z"/>
      <path id="Path_34" data-name="Path 34" d="M1085.786,795.6q-.649-1.321-1.2-2.58t-1.133-2.787a6.721,6.721,0,0,0-.34-.869q-.171-.347-.323-.747-.409-1.007-.809-1.911a18.986,18.986,0,0,1-.771-2.1q-.289-.765-.5-1.242c-.142-.319-.3-.68-.468-1.086a1.943,1.943,0,0,1-.13-.972,1.718,1.718,0,0,1,.588-.85l.369-.311a1.811,1.811,0,0,1,1.312-.473,1.283,1.283,0,0,1,1.071.726,10.176,10.176,0,0,1,.828,1.771q.364,1.008.619,1.875.34.956.646,1.8t.638,1.692q.332.852.707,1.746t.835,1.919c.114.289.21.53.29.72s.157.376.23.556.153.371.239.573.195.443.332.721q.359.818.563,1.363a8.275,8.275,0,0,0,.546,1.155l.342.7a1.053,1.053,0,0,0,.569.454,1.09,1.09,0,0,0,.761-.03,3.42,3.42,0,0,1,.339-.145,3.108,3.108,0,0,0,.339-.145q.955-.512,1.712-.95t1.816-1.087a4.06,4.06,0,0,0,.6-.4,6.175,6.175,0,0,0,.566-.473q.488-.411.775-.661t.775-.661a1.51,1.51,0,0,1,1.379-.354,1.593,1.593,0,0,1,1.093.994.782.782,0,0,1-.093.952q-.3.362-.55.637a4.163,4.163,0,0,1-.635.549q-.662.5-1.1.781c-.3.188-.723.449-1.278.779a8.428,8.428,0,0,1-.784.558c-.231.143-.458.283-.677.42-.5.273-.986.542-1.461.8s-.961.5-1.459.718q-.783.342-1.562.616c-.518.184-1.048.351-1.585.5a1.339,1.339,0,0,1-.961-.045,1.6,1.6,0,0,1-.76-.705q-.72-1.2-1.335-2.45a7.885,7.885,0,0,1-.495-1.008C1086.1,796.271,1085.946,795.929,1085.786,795.6Z"/>
      <path id="Path_35" data-name="Path 35" d="M1112.2,764.252a1.637,1.637,0,0,1,.773.754,2.132,2.132,0,0,1,.232,1.128l.019.033a1.533,1.533,0,0,1-.556,1.062,8.513,8.513,0,0,1-.9.638l-.066.041-.133.08-.431.26-.976.593c-.342.207-.686.4-1.03.579l-.132.08q-.7.336-1.342.7a11.292,11.292,0,0,0-1.228.812,3.925,3.925,0,0,0-.442.54.362.362,0,0,0-.046.3l.02.033.221.364q.649,1.146,1.31,2.308t1.328,2.342l.02.033c.156.058.245.078.266.065a.379.379,0,0,0,.169-.057.414.414,0,0,1,.17-.058q.528-.321,1.069-.625t1.057-.573l.914-.509.4-.241.53-.321a2.531,2.531,0,0,1,.57-.255l.132-.08a4.879,4.879,0,0,1,.6-.205,1.664,1.664,0,0,1,.9.065l.02.033a3.613,3.613,0,0,1,.9.431,1.464,1.464,0,0,1,.6.924,1.986,1.986,0,0,1-.045,1.046,1.511,1.511,0,0,1-.57.776,9.068,9.068,0,0,1-.97.679q-.513.311-1.063.6a1.737,1.737,0,0,0-.284.128l-.2.12-.131.08-.7.422a3.74,3.74,0,0,1-.341.185c-.118.056-.249.113-.4.171l-.065.04a6.983,6.983,0,0,0-1.087.523.759.759,0,0,0-.085.233q.153.405.261.656c.1.27.207.517.313.739s.228.5.372.838a5.781,5.781,0,0,0,.559.884,3.345,3.345,0,0,0,.63.705c.076.075.135.1.18.072a7.372,7.372,0,0,0,1.707-.7,16.32,16.32,0,0,0,1.492-.974q.774-.741,1.509-1.321a11.2,11.2,0,0,1,1.549-1.03,2.5,2.5,0,0,1,.637-.183,1.348,1.348,0,0,1,.711.09,2.174,2.174,0,0,1,1.259.957,1.441,1.441,0,0,1,.065,1,1.929,1.929,0,0,1-.435.851c-.1.125-.21.241-.31.347s-.249.25-.444.428a21.2,21.2,0,0,1-2.031,1.5q-1.039.675-2.318,1.405a2.355,2.355,0,0,0-.41.294l-.067.041-.529.32-.067.041-.066.04-.033.02a1.158,1.158,0,0,0-.268.118l-.216.13-.033.021q-.683.367-1.361.667a3.431,3.431,0,0,1-1.622.236,1.851,1.851,0,0,1-1.364-.531,8.614,8.614,0,0,1-.829-.993q-.567-.786-1.4-2.091t-1.652-2.689q-.816-1.385-1.507-2.6t-.964-1.815a16.438,16.438,0,0,0-1.848-3.046,12.788,12.788,0,0,1-.789-1.151q-.36-.6-.689-1.212l-.04-.067a2.6,2.6,0,0,1-.419-1.512,1.571,1.571,0,0,1,.639-1.338,3.244,3.244,0,0,1,.561-.454q.37-.246.881-.6a7.731,7.731,0,0,1,1-.672q.507-.284.957-.512l.033-.02,1.358-.823q1.039-.675,2.076-1.281t1.931-1.149a1.629,1.629,0,0,1,1.217-.194A5.51,5.51,0,0,1,1112.2,764.252Z"/>
      <path id="Path_36" data-name="Path 36" d="M1144.084,761.026a24.581,24.581,0,0,1,2.6,1.512,4.32,4.32,0,0,1,1.116,1.076,1.963,1.963,0,0,1,.267,1.975,2.036,2.036,0,0,1-.684.9,2.1,2.1,0,0,1-.856.373,2.127,2.127,0,0,1-.965-.03,4.3,4.3,0,0,1-.89-.35c-.17-.1-.336-.192-.5-.279s-.3-.168-.422-.242l-.023-.031q-.177-.108-.4-.237c-.144-.085-.275-.164-.394-.237q-.309-.155-.614-.338c-.2-.121-.41-.234-.616-.338a.958.958,0,0,0-.975.051q-1.46.9-2.668,1.8a32.732,32.732,0,0,0-2.584,2.171l-.218.162-.008.054a.783.783,0,0,0-.224.217.8.8,0,0,0-.261.46.411.411,0,0,0,.05.228c.05.156.107.306.169.453s.118.3.17.455l-.008.053c.041.1.086.2.135.311a2.454,2.454,0,0,1,.126.364l.078.232a6.2,6.2,0,0,1,.284.706q.115.348.254.728a1.826,1.826,0,0,1-.053,1.224,1.85,1.85,0,0,1-.812.92q-.179.084-.387.192a3.053,3.053,0,0,1-.442.185,1.844,1.844,0,0,1-2.1-.748l-.023-.032-.023-.031-.047-.061a1.532,1.532,0,0,0-.161-.315,2.677,2.677,0,0,1-.224-.461q-.184-.635-.365-1.2t-.349-1.116l.007-.054q-.414-1.333-.772-2.492t-.715-2.414q-.357-1.255-.726-2.72t-.805-3.409q-.138-.573-.357-1.255t-.462-1.4q-.242-.713-.476-1.383t-.436-1.2a.446.446,0,0,1-.065-.12.421.421,0,0,0-.066-.12,1.062,1.062,0,0,1-.111-.182c-.028-.059-.063-.138-.1-.237a1.868,1.868,0,0,1-.04-1.153,2.161,2.161,0,0,1,.579-1.037,1.87,1.87,0,0,1,1.882-.391,6.33,6.33,0,0,1,1.564.67,9.814,9.814,0,0,0,1,.63q.956.567,2.409,1.415t3.175,1.858q1.72,1.011,3.275,1.928.534.327,1.044.622l1.021.591c.221.125.453.25.692.377s.481.245.724.354a4.146,4.146,0,0,1,.456.191Zm-6.663,1.3a2.394,2.394,0,0,0-.548-.412q-.737-.465-1.505-.882t-1.575-.782q-.385-.193-.789-.378c-.267-.121-.538-.257-.811-.408l.022.031-.007.054.023.031q.972,4.735,1.257,5.633l.218-.162.031-.022.248-.186a.883.883,0,0,1,.24-.131l.457-.294q.667-.4,1.2-.752a13.791,13.791,0,0,0,1.359-1.061A2.582,2.582,0,0,1,1137.421,762.327Z"/>
      <path id="Path_37" data-name="Path 37" d="M1168.525,744.136a1.66,1.66,0,0,1,.943.973,1.822,1.822,0,0,1-.2,1.444,2.393,2.393,0,0,1-.179.32c-.058.09-.126.188-.2.293a2.92,2.92,0,0,1-.493.609,1.794,1.794,0,0,1-1.16.539,2.758,2.758,0,0,1-1.075-.171,3.144,3.144,0,0,0-.514-.159q-.459-.157-.944-.343t-.943-.4c-.377-.145-.722-.275-1.038-.389s-.624-.224-.93-.328c-.236-.065-.474-.135-.717-.21s-.519-.164-.824-.269a.678.678,0,0,0-.671-.015,3.688,3.688,0,0,0-.355.271q-.406.532-.858,1.128t-.891,1.263a.376.376,0,0,0,.005.52,4.435,4.435,0,0,0,.505.666c.183.2.38.4.591.588l.052.058c.07.076.162.175.275.3a2.87,2.87,0,0,0,.355.33q.235.257.368.373c.087.077.149.133.184.172a3.705,3.705,0,0,1,1.094,1.308,1.446,1.446,0,0,1,.083,1.237,4.35,4.35,0,0,1-.757,1.008,3.569,3.569,0,0,1-1.385.954,1.807,1.807,0,0,1-.828.128,1.551,1.551,0,0,1-.568-.162,2.736,2.736,0,0,1-.811-.57,7.078,7.078,0,0,1-.614-.7,7.967,7.967,0,0,1-.539-.819c-.068-.112-.146-.224-.232-.339a1.453,1.453,0,0,1-.2-.365,13.093,13.093,0,0,0-.859-1.024q-.758-.855-2.384-2.516-1.338-1.345-2.469-2.437t-1.659-1.553q-.687-.579-1.344-1.21t-1.317-1.236l-.274-.3a2.138,2.138,0,0,0-.3-.274,2.374,2.374,0,0,1-.816-1.694,2.851,2.851,0,0,1,.67-1.848,3.524,3.524,0,0,1,.391-.49c.144-.148.273-.294.389-.434q.576-.633.947-.973l.8-.733.086-.079a11.333,11.333,0,0,1,6.666-3.27,5.216,5.216,0,0,1,2.037.1,9.161,9.161,0,0,1,1.762.776,6.507,6.507,0,0,1,.848.64q.5.434.607.547l.026.029a5.714,5.714,0,0,1,1.7,4.432,6.142,6.142,0,0,0-.044.7c0,.229,0,.435-.013.617a.478.478,0,0,0,.058.235.54.54,0,0,0,.306.22,21.3,21.3,0,0,0,2.428.873q1.218.355,2.331.6a11.867,11.867,0,0,1,1.447.433Q1167.774,743.774,1168.525,744.136Zm-12.138-2.587a2.8,2.8,0,0,0-.81-2.776,3.153,3.153,0,0,0-2.207-.919,2.407,2.407,0,0,0-.522.032c-.166.029-.322.059-.47.089a5.766,5.766,0,0,0-2.716,1.333,3.523,3.523,0,0,0-.431.447.721.721,0,0,0-.184.431.421.421,0,0,0,.1.224q.259.341.847,1.009t1.24,1.411c.434.495.849.965,1.239,1.412s.675.764.85.955a4.9,4.9,0,0,0,.446.43,4.835,4.835,0,0,0,.505.378.666.666,0,0,0,.351.1c.074,0,.122-.04.143-.131a.243.243,0,0,0,.073-.093.277.277,0,0,1,.073-.093c.117-.176.234-.345.35-.5a2.139,2.139,0,0,0,.269-.482q.317-.972.515-1.759T1156.387,741.549Z"/>
      <path id="Path_38" data-name="Path 38" d="M1183.662,719.7a1.251,1.251,0,0,0,.2.235l.259.232a10.129,10.129,0,0,0,1.1,1.037q.486.385,1.314.971a17.128,17.128,0,0,1,1.4.993,7.494,7.494,0,0,1,1.072,1.066,1.78,1.78,0,0,1,.438,1.223,1.816,1.816,0,0,1-.467,1.247.177.177,0,0,1-.066.044.177.177,0,0,0-.067.044,2.523,2.523,0,0,1-.366.323,3.178,3.178,0,0,1-.585.333,1.9,1.9,0,0,1-2.013-.192,11.846,11.846,0,0,1-1.158-.883,7.708,7.708,0,0,1-.623-.61q-.666-.649-1.354-1.215-.315-.23-.63-.487a7.923,7.923,0,0,1-.694-.648,7.864,7.864,0,0,0-1.163-.964,4.682,4.682,0,0,0-.722-.413,1.393,1.393,0,0,0-.488.109,4.054,4.054,0,0,1-.429.16q-.243.1-.538.194c-.2.066-.451.135-.757.205l-.055,0c-.163.029-.361.067-.6.116s-.468.108-.7.175c-.217.049-.42.091-.61.129s-.366.071-.529.1q-1.163.31-1.841.43l-1.359.238c-.216.049-.452.089-.706.121s-.544.075-.87.129a13.108,13.108,0,0,1,1.787,1.343q.82.736,1.577,1.517a29.8,29.8,0,0,0,2.278,2.042,2.216,2.216,0,0,1,.328.243l.3.272q.542.383,1.031.793c.325.275.659.532,1,.768a15.4,15.4,0,0,1,1.418,1.116,4.919,4.919,0,0,1,1.048,1.355,2.165,2.165,0,0,1,.237.837,1.781,1.781,0,0,1-.349,1.144,2.761,2.761,0,0,1-1.745,1.191,2.166,2.166,0,0,1-1.808-.477,4.966,4.966,0,0,1-1.092-.927q-.2-.181-.778-.671t-1.278-1.068l-1.363-1.119q-.661-.539-1.065-.9a4.908,4.908,0,0,1-.4-.308l-.144-.129q-.606-.543-1.25-1.043t-1.272-.959q-.858-.664-1.718-1.332a20.676,20.676,0,0,1-1.67-1.444,16.536,16.536,0,0,0-1.49-1.18.82.82,0,0,1-.256-.177,2.587,2.587,0,0,1-1.076-2.629c.03-.112.062-.214.093-.307a1.4,1.4,0,0,0,.067-.278.415.415,0,0,1,.036-.1.332.332,0,0,0,.035-.1,1.965,1.965,0,0,1,1.083-1.266,5.847,5.847,0,0,1,1.4-.434,11.648,11.648,0,0,1,1.307-.153c.382-.039.751-.063,1.107-.074s.717-.025,1.081-.045l.547-.03.547-.03.328-.017.383-.022a1.022,1.022,0,0,0,.324-.072l.055,0q1.087-.168,1.755-.247t1.517-.1q.517-.056.885-.117a4.918,4.918,0,0,0,.824-.224,1.438,1.438,0,0,0-.28-.354,1.99,1.99,0,0,1-.277-.3c-.212-.189-.428-.392-.65-.609s-.44-.438-.653-.664q-.317-.284-.665-.621t-.694-.649c-.117-.139-.233-.269-.35-.391a1.934,1.934,0,0,1-.3-.4,3.792,3.792,0,0,1-.733-1.852,1.73,1.73,0,0,1,.343-1.019,5.317,5.317,0,0,1,.608-.678l.054,0a1.7,1.7,0,0,1,.815-.387,2,2,0,0,1,.783.026,3.631,3.631,0,0,1,.671.237q.309.148.479.248a6.476,6.476,0,0,1,.67.471,4.656,4.656,0,0,1,.535.506q1.592,1.53,3.024,2.892t2.763,2.66q.492.441.926.881T1183.662,719.7Z"/>
    </g>
  </g>
</svg>
